<svg width="1000" height="1000" viewBox="0 0 1000 1000" xmlns="http://www.w3.org/2000/svg"><defs/><path fill="#010101" d="M 0 0 L 1000 0 L 1000 1000 L 0 1000 Z"/><path fill="#d10809" transform="matrix(0.8296185680487222 0 0 0.8296185680487222 -26.972109507675693 1.8741957514640433)" d="M 759.09806547619 667.75660334821 C 756.39806547619 673.85660334821 685.29806547619 614.55660334821 679.79806547619 608.35660334821 C 656.09806547619 581.45660334821 640.29806547619 546.75660334821 640.09806547619 510.45660334821 C 639.89806547619 472.15660334821 650.89806547619 435.15660334821 657.19806547619 397.65660334821 C 661.49806547619 372.45660334821 672.99806547619 309.75660334821 645.69806547619 292.45660334821 C 769.09806547619 370.65660334821 820.09806547619 529.45660334821 759.29806547619 667.15660334821 C 759.29806547619 667.15660334821 759.09806547619 667.75660334821 759.09806547619 667.75660334821 Z"/><g opacity="0.8" transform="matrix(0.8296185680487222 0 0 0.8296185680487222 -26.972109507675693 1.8741957514640433)"><path fill="#d10809" d="M 759.09806547619 667.95660334821 C 759.59806547619 673.75660334821 680.39806547619 657.85660334821 673.59806547619 655.35660334821 C 644.19806547619 644.55660334821 617.69806547619 624.55660334821 602.39806547619 596.75660334821 C 586.29806547619 567.45660334821 579.39806547619 534.55660334821 568.59806547619 503.15660334821 C 561.29806547619 482.05660334821 544.09806547619 429.15660334821 515.99806547619 427.25660334821 C 643.09806547619 435.85660334821 748.29806547619 536.45660334821 758.99806547619 667.35660334821 C 758.99806547619 667.35660334821 759.09806547619 667.85660334821 759.09806547619 667.95660334821 Z"/></g><g opacity="0.6" transform="matrix(0.8296185680487222 0 0 0.8296185680487222 -26.972109507675693 1.8741957514640433)"><path fill="#d10809" d="M 759.09806547619 667.85660334821 C 763.69806547619 671.25660334821 700.19806547619 719.25660334821 693.89806547619 722.65660334821 C 666.69806547619 737.25660334821 634.59806547619 743.75660334821 604.19806547619 736.85660334821 C 572.09806547619 729.55660334821 543.29806547619 713.15660334821 513.09806547619 700.65660334821 C 492.79806547619 692.25660334821 442.59806547619 670.35660334821 422.79806547619 689.85660334821 C 512.29806547619 601.75660334821 655.09806547619 589.85660334821 758.59806547619 667.55660334821 C 758.69806547619 667.55660334821 759.09806547619 667.85660334821 759.09806547619 667.85660334821 Z"/></g><path fill="#d10809" transform="matrix(0.8296185680487222 0 0 0.8296185680487222 -26.972109507675693 1.8741957514640433)" d="M 847.59806547619 548.25660334821 C 832.79806547619 567.65660334821 828.39806547619 589.55660334821 825.19806547619 612.15660334821 C 821.89806547619 634.85660334821 820.29806547619 658.65660334821 812.69806547619 683.05660334821 C 810.89806547619 689.05660334821 808.29806547619 695.15660334821 805.49806547619 701.05660334821 C 803.89806547619 703.95660334821 802.39806547619 706.95660334821 800.69806547619 709.75660334821 C 798.99806547619 712.35660334821 797.39806547619 715.15660334821 795.49806547619 717.65660334821 C 788.19806547619 727.95660334821 779.79806547619 737.45660334821 770.19806547619 745.55660334821 C 751.19806547619 761.85660334821 727.79806547619 773.45660334821 703.59806547619 775.75660334821 C 724.39806547619 763.35660334821 741.69806547619 748.65660334821 756.09806547619 731.45660334821 C 763.29806547619 722.95660334821 769.69806547619 713.85660334821 775.39806547619 704.45660334821 C 776.89806547619 702.15660334821 778.09806547619 699.65660334821 779.49806547619 697.35660334821 C 780.69806547619 694.95660334821 781.69806547619 692.65660334821 782.89806547619 690.35660334821 C 784.99806547619 685.55660334821 786.99806547619 680.65660334821 788.49806547619 675.35660334821 C 795.19806547619 654.55660334821 798.59806547619 631.15660334821 805.79806547619 607.75660334821 C 809.39806547619 596.05660334821 814.09806547619 584.35660334821 820.89806547619 573.65660334821 C 827.69806547619 563.15660334821 836.69806547619 553.65660334821 847.59806547619 548.25660334821 Z"/><path id="text" fill="#ececec" transform="matrix(0.9668080968796959 0 0 0.9668080968796959 -3.341288782816229 521.0686157517899)" d="M 171.27771428571 239.88606857143 C 167.18171428571 238.15806857143 164.07771428571 235.88606857143 161.96571428571 233.07006857143 C 159.85371428571 230.25406857143 158.73371428571 227.21406857143 158.60571428571 223.95006857143 C 158.60571428571 223.37406857143 158.79771428571 222.89406857143 159.18171428571 222.51006857143 C 159.56571428571 222.12606857143 160.04571428571 221.93406857143 160.62171428571 221.93406857143 L 169.16571428571 221.93406857143 C 169.93371428571 221.93406857143 170.52571428571 222.07806857143 170.94171428571 222.36606857143 C 171.35771428571 222.65406857143 171.75771428571 223.11806857143 172.14171428571 223.75806857143 C 172.78171428571 225.93406857143 174.25371428571 227.75806857143 176.55771428571 229.23006857143 C 178.86171428571 230.70206857143 181.99771428571 231.43806857143 185.96571428571 231.43806857143 C 190.50971428571 231.43806857143 193.93371428571 230.68606857143 196.23771428571 229.18206857143 C 198.54171428571 227.67806857143 199.69371428571 225.58206857143 199.69371428571 222.89406857143 C 199.69371428571 221.10206857143 199.10171428571 219.63006857143 197.91771428571 218.47806857143 C 196.73371428571 217.32606857143 194.97371428571 216.33406857143 192.63771428571 215.50206857143 C 190.30171428571 214.67006857143 186.82971428571 213.64606857143 182.22171428571 212.43006857143 C 174.66971428571 210.63806857143 169.14971428571 208.25406857143 165.66171428571 205.27806857143 C 162.17371428571 202.30206857143 160.42971428571 198.06206857143 160.42971428571 192.55806857143 C 160.42971428571 188.84606857143 161.43771428571 185.55006857143 163.45371428571 182.67006857143 C 165.46971428571 179.79006857143 168.38171428571 177.51806857143 172.18971428571 175.85406857143 C 175.99771428571 174.19006857143 180.42971428571 173.35806857143 185.48571428571 173.35806857143 C 190.73371428571 173.35806857143 195.27771428571 174.28606857143 199.11771428571 176.14206857143 C 202.95771428571 177.99806857143 205.88571428571 180.31806857143 207.90171428571 183.10206857143 C 209.91771428571 185.88606857143 210.98971428571 188.65406857143 211.11771428571 191.40606857143 C 211.11771428571 191.98206857143 210.92571428571 192.46206857143 210.54171428571 192.84606857143 C 210.15771428571 193.23006857143 209.67771428571 193.42206857143 209.10171428571 193.42206857143 L 200.17371428571 193.42206857143 C 198.82971428571 193.42206857143 197.90171428571 192.81406857143 197.38971428571 191.59806857143 C 197.00571428571 189.55006857143 195.72571428571 187.83806857143 193.54971428571 186.46206857143 C 191.37371428571 185.08606857143 188.68571428571 184.39806857143 185.48571428571 184.39806857143 C 181.90171428571 184.39806857143 179.08571428571 185.07006857143 177.03771428571 186.41406857143 C 174.98971428571 187.75806857143 173.96571428571 189.71006857143 173.96571428571 192.27006857143 C 173.96571428571 194.06206857143 174.47771428571 195.53406857143 175.50171428571 196.68606857143 C 176.52571428571 197.83806857143 178.14171428571 198.86206857143 180.34971428571 199.75806857143 C 182.55771428571 200.65406857143 185.74171428571 201.64606857143 189.90171428571 202.73406857143 C 195.53371428571 204.01406857143 200.02971428571 205.45406857143 203.38971428571 207.05406857143 C 206.74971428571 208.65406857143 209.22971428571 210.67006857143 210.82971428571 213.10206857143 C 212.42971428571 215.53406857143 213.22971428571 218.63806857143 213.22971428571 222.41406857143 C 213.22971428571 226.51006857143 212.09371428571 230.07806857143 209.82171428571 233.11806857143 C 207.54971428571 236.15806857143 204.34971428571 238.47806857143 200.22171428571 240.07806857143 C 196.09371428571 241.67806857143 191.34171428571 242.47806857143 185.96571428571 242.47806857143 C 180.26971428571 242.47806857143 175.37371428571 241.61406857143 171.27771428571 239.88606857143 Z M 229.69371428571 235.66206857143 C 224.86171428571 231.11806857143 222.28571428571 224.71806857143 221.96571428571 216.46206857143 C 221.90171428571 214.73406857143 221.86971428571 211.91806857143 221.86971428571 208.01406857143 C 221.86971428571 204.04606857143 221.90171428571 201.16606857143 221.96571428571 199.37406857143 C 222.28571428571 191.18206857143 224.89371428571 184.79806857143 229.78971428571 180.22206857143 C 234.68571428571 175.64606857143 241.48571428571 173.35806857143 250.18971428571 173.35806857143 C 255.88571428571 173.35806857143 260.84571428571 174.33406857143 265.06971428571 176.28606857143 C 269.29371428571 178.23806857143 272.55771428571 180.89406857143 274.86171428571 184.25406857143 C 277.16571428571 187.61406857143 278.38171428571 191.40606857143 278.50971428571 195.63006857143 L 278.50971428571 195.82206857143 C 278.50971428571 196.33406857143 278.30171428571 196.76606857143 277.88571428571 197.11806857143 C 277.46971428571 197.47006857143 277.00571428571 197.64606857143 276.49371428571 197.64606857143 L 267.37371428571 197.64606857143 C 266.60571428571 197.64606857143 266.02971428571 197.48606857143 265.64571428571 197.16606857143 C 265.26171428571 196.84606857143 264.94171428571 196.23806857143 264.68571428571 195.34206857143 C 263.66171428571 191.31006857143 261.96571428571 188.47806857143 259.59771428571 186.84606857143 C 257.22971428571 185.21406857143 254.06171428571 184.39806857143 250.09371428571 184.39806857143 C 240.87771428571 184.39806857143 236.07771428571 189.55006857143 235.69371428571 199.85406857143 C 235.62971428571 201.58206857143 235.59771428571 204.23806857143 235.59771428571 207.82206857143 C 235.59771428571 211.40606857143 235.62971428571 214.12606857143 235.69371428571 215.98206857143 C 236.07771428571 226.28606857143 240.87771428571 231.43806857143 250.09371428571 231.43806857143 C 254.06171428571 231.43806857143 257.24571428571 230.60606857143 259.64571428571 228.94206857143 C 262.04571428571 227.27806857143 263.72571428571 224.46206857143 264.68571428571 220.49406857143 C 264.87771428571 219.59806857143 265.18171428571 218.99006857143 265.59771428571 218.67006857143 C 266.01371428571 218.35006857143 266.60571428571 218.19006857143 267.37371428571 218.19006857143 L 276.49371428571 218.19006857143 C 277.06971428571 218.19006857143 277.56571428571 218.38206857143 277.98171428571 218.76606857143 C 278.39771428571 219.15006857143 278.57371428571 219.63006857143 278.50971428571 220.20606857143 C 278.38171428571 224.43006857143 277.16571428571 228.22206857143 274.86171428571 231.58206857143 C 272.55771428571 234.94206857143 269.29371428571 237.59806857143 265.06971428571 239.55006857143 C 260.84571428571 241.50206857143 255.88571428571 242.47806857143 250.18971428571 242.47806857143 C 241.35771428571 242.47806857143 234.52571428571 240.20606857143 229.69371428571 235.66206857143 Z M 283.64571428571 240.94206857143 C 283.22971428571 240.55806857143 283.02171428571 240.07806857143 283.02171428571 239.50206857143 L 283.21371428571 238.63806857143 L 306.34971428571 176.71806857143 C 306.79771428571 175.11806857143 307.91771428571 174.31806857143 309.70971428571 174.31806857143 L 320.17371428571 174.31806857143 C 321.83771428571 174.31806857143 322.95771428571 175.11806857143 323.53371428571 176.71806857143 L 346.66971428571 238.63806857143 C 346.73371428571 238.83006857143 346.76571428571 239.11806857143 346.76571428571 239.50206857143 C 346.76571428571 240.07806857143 346.57371428571 240.55806857143 346.18971428571 240.94206857143 C 345.80571428571 241.32606857143 345.35771428571 241.51806857143 344.84571428571 241.51806857143 L 336.49371428571 241.51806857143 C 335.66171428571 241.51806857143 335.02171428571 241.32606857143 334.57371428571 240.94206857143 C 334.12571428571 240.55806857143 333.83771428571 240.14206857143 333.70971428571 239.69406857143 L 329.19771428571 227.98206857143 L 300.68571428571 227.98206857143 L 296.17371428571 239.69406857143 C 295.66171428571 240.91006857143 294.73371428571 241.51806857143 293.38971428571 241.51806857143 L 285.03771428571 241.51806857143 C 284.52571428571 241.51806857143 284.06171428571 241.32606857143 283.64571428571 240.94206857143 Z M 325.83771428571 216.94206857143 L 314.89371428571 187.27806857143 L 304.04571428571 216.94206857143 L 325.83771428571 216.94206857143 Z M 364.14171428571 240.84606857143 C 363.69371428571 240.39806857143 363.46971428571 239.85406857143 363.46971428571 239.21406857143 L 363.46971428571 186.12606857143 L 345.70971428571 186.12606857143 C 345.06971428571 186.12606857143 344.52571428571 185.90206857143 344.07771428571 185.45406857143 C 343.62971428571 185.00606857143 343.40571428571 184.46206857143 343.40571428571 183.82206857143 L 343.40571428571 176.71806857143 C 343.40571428571 176.01406857143 343.61371428571 175.43806857143 344.02971428571 174.99006857143 C 344.44571428571 174.54206857143 345.00571428571 174.31806857143 345.70971428571 174.31806857143 L 394.66971428571 174.31806857143 C 395.37371428571 174.31806857143 395.94971428571 174.54206857143 396.39771428571 174.99006857143 C 396.84571428571 175.43806857143 397.06971428571 176.01406857143 397.06971428571 176.71806857143 L 397.06971428571 183.82206857143 C 397.06971428571 184.46206857143 396.84571428571 185.00606857143 396.39771428571 185.45406857143 C 395.94971428571 185.90206857143 395.37371428571 186.12606857143 394.66971428571 186.12606857143 L 377.00571428571 186.12606857143 L 377.00571428571 239.21406857143 C 377.00571428571 239.85406857143 376.78171428571 240.39806857143 376.33371428571 240.84606857143 C 375.88571428571 241.29406857143 375.30971428571 241.51806857143 374.60571428571 241.51806857143 L 365.77371428571 241.51806857143 C 365.13371428571 241.51806857143 364.58971428571 241.29406857143 364.14171428571 240.84606857143 Z M 422.22171428571 240.84606857143 C 421.77371428571 240.39806857143 421.54971428571 239.85406857143 421.54971428571 239.21406857143 L 421.54971428571 186.12606857143 L 403.78971428571 186.12606857143 C 403.14971428571 186.12606857143 402.60571428571 185.90206857143 402.15771428571 185.45406857143 C 401.70971428571 185.00606857143 401.48571428571 184.46206857143 401.48571428571 183.82206857143 L 401.48571428571 176.71806857143 C 401.48571428571 176.01406857143 401.69371428571 175.43806857143 402.10971428571 174.99006857143 C 402.52571428571 174.54206857143 403.08571428571 174.31806857143 403.78971428571 174.31806857143 L 452.74971428571 174.31806857143 C 453.45371428571 174.31806857143 454.02971428571 174.54206857143 454.47771428571 174.99006857143 C 454.92571428571 175.43806857143 455.14971428571 176.01406857143 455.14971428571 176.71806857143 L 455.14971428571 183.82206857143 C 455.14971428571 184.46206857143 454.92571428571 185.00606857143 454.47771428571 185.45406857143 C 454.02971428571 185.90206857143 453.45371428571 186.12606857143 452.74971428571 186.12606857143 L 435.08571428571 186.12606857143 L 435.08571428571 239.21406857143 C 435.08571428571 239.85406857143 434.86171428571 240.39806857143 434.41371428571 240.84606857143 C 433.96571428571 241.29406857143 433.38971428571 241.51806857143 432.68571428571 241.51806857143 L 423.85371428571 241.51806857143 C 423.21371428571 241.51806857143 422.66971428571 241.29406857143 422.22171428571 240.84606857143 Z M 465.51771428571 240.84606857143 C 465.06971428571 240.39806857143 464.84571428571 239.85406857143 464.84571428571 239.21406857143 L 464.84571428571 176.71806857143 C 464.84571428571 176.01406857143 465.05371428571 175.43806857143 465.46971428571 174.99006857143 C 465.88571428571 174.54206857143 466.44571428571 174.31806857143 467.14971428571 174.31806857143 L 509.38971428571 174.31806857143 C 510.09371428571 174.31806857143 510.66971428571 174.54206857143 511.11771428571 174.99006857143 C 511.56571428571 175.43806857143 511.78971428571 176.01406857143 511.78971428571 176.71806857143 L 511.78971428571 183.05406857143 C 511.78971428571 183.75806857143 511.56571428571 184.31806857143 511.11771428571 184.73406857143 C 510.66971428571 185.15006857143 510.09371428571 185.35806857143 509.38971428571 185.35806857143 L 477.80571428571 185.35806857143 L 477.80571428571 202.35006857143 L 507.27771428571 202.35006857143 C 507.98171428571 202.35006857143 508.55771428571 202.55806857143 509.00571428571 202.97406857143 C 509.45371428571 203.39006857143 509.67771428571 203.95006857143 509.67771428571 204.65406857143 L 509.67771428571 210.60606857143 C 509.67771428571 211.31006857143 509.45371428571 211.87006857143 509.00571428571 212.28606857143 C 508.55771428571 212.70206857143 507.98171428571 212.91006857143 507.27771428571 212.91006857143 L 477.80571428571 212.91006857143 L 477.80571428571 230.47806857143 L 510.15771428571 230.47806857143 C 510.86171428571 230.47806857143 511.43771428571 230.70206857143 511.88571428571 231.15006857143 C 512.33371428571 231.59806857143 512.55771428571 232.17406857143 512.55771428571 232.87806857143 L 512.55771428571 239.21406857143 C 512.55771428571 239.91806857143 512.33371428571 240.47806857143 511.88571428571 240.89406857143 C 511.43771428571 241.31006857143 510.86171428571 241.51806857143 510.15771428571 241.51806857143 L 467.14971428571 241.51806857143 C 466.50971428571 241.51806857143 465.96571428571 241.29406857143 465.51771428571 240.84606857143 Z M 525.22971428571 240.84606857143 C 524.78171428571 240.39806857143 524.55771428571 239.85406857143 524.55771428571 239.21406857143 L 524.55771428571 176.71806857143 C 524.55771428571 176.01406857143 524.76571428571 175.43806857143 525.18171428571 174.99006857143 C 525.59771428571 174.54206857143 526.15771428571 174.31806857143 526.86171428571 174.31806857143 L 551.72571428571 174.31806857143 C 559.53371428571 174.31806857143 565.66171428571 176.14206857143 570.10971428571 179.79006857143 C 574.55771428571 183.43806857143 576.78171428571 188.62206857143 576.78171428571 195.34206857143 C 576.78171428571 200.01406857143 575.64571428571 203.93406857143 573.37371428571 207.10206857143 C 571.10171428571 210.27006857143 567.94971428571 212.55806857143 563.91771428571 213.96606857143 L 577.93371428571 238.44606857143 C 578.12571428571 238.83006857143 578.22171428571 239.18206857143 578.22171428571 239.50206857143 C 578.22171428571 240.07806857143 578.01371428571 240.55806857143 577.59771428571 240.94206857143 C 577.18171428571 241.32606857143 576.71771428571 241.51806857143 576.20571428571 241.51806857143 L 567.46971428571 241.51806857143 C 566.44571428571 241.51806857143 565.66171428571 241.29406857143 565.11771428571 240.84606857143 C 564.57371428571 240.39806857143 564.07771428571 239.75806857143 563.62971428571 238.92606857143 L 551.24571428571 216.17406857143 L 537.90171428571 216.17406857143 L 537.90171428571 239.21406857143 C 537.90171428571 239.85406857143 537.69371428571 240.39806857143 537.27771428571 240.84606857143 C 536.86171428571 241.29406857143 536.30171428571 241.51806857143 535.59771428571 241.51806857143 L 526.86171428571 241.51806857143 C 526.22171428571 241.51806857143 525.67771428571 241.29406857143 525.22971428571 240.84606857143 Z M 551.43771428571 205.32606857143 C 555.27771428571 205.32606857143 558.17371428571 204.46206857143 560.12571428571 202.73406857143 C 562.07771428571 201.00606857143 563.05371428571 198.51006857143 563.05371428571 195.24606857143 C 563.05371428571 191.98206857143 562.07771428571 189.45406857143 560.12571428571 187.66206857143 C 558.17371428571 185.87006857143 555.27771428571 184.97406857143 551.43771428571 184.97406857143 L 537.90171428571 184.97406857143 L 537.90171428571 205.32606857143 L 551.43771428571 205.32606857143 Z M 594.58971428571 235.66206857143 C 589.69371428571 231.11806857143 587.08571428571 224.78206857143 586.76571428571 216.65406857143 C 586.70171428571 214.79806857143 586.66971428571 211.82206857143 586.66971428571 207.72606857143 C 586.66971428571 203.63006857143 586.70171428571 200.65406857143 586.76571428571 198.79806857143 C 587.08571428571 190.86206857143 589.72571428571 184.63806857143 594.68571428571 180.12606857143 C 599.64571428571 175.61406857143 606.44571428571 173.35806857143 615.08571428571 173.35806857143 C 620.97371428571 173.35806857143 626.02971428571 174.35006857143 630.25371428571 176.33406857143 C 634.47771428571 178.31806857143 637.67771428571 180.79806857143 639.85371428571 183.77406857143 C 642.02971428571 186.75006857143 643.18171428571 189.67806857143 643.30971428571 192.55806857143 L 643.30971428571 192.75006857143 C 643.30971428571 193.26206857143 643.11771428571 193.69406857143 642.73371428571 194.04606857143 C 642.34971428571 194.39806857143 641.86971428571 194.57406857143 641.29371428571 194.57406857143 L 631.40571428571 194.57406857143 C 630.76571428571 194.57406857143 630.28571428571 194.46206857143 629.96571428571 194.23806857143 C 629.64571428571 194.01406857143 629.35771428571 193.61406857143 629.10171428571 193.03806857143 C 628.20571428571 190.67006857143 626.63771428571 188.63806857143 624.39771428571 186.94206857143 C 622.15771428571 185.24606857143 619.05371428571 184.39806857143 615.08571428571 184.39806857143 C 610.60571428571 184.39806857143 607.10171428571 185.61406857143 604.57371428571 188.04606857143 C 602.04571428571 190.47806857143 600.68571428571 194.22206857143 600.49371428571 199.27806857143 C 600.42971428571 201.13406857143 600.39771428571 203.95006857143 600.39771428571 207.72606857143 C 600.39771428571 211.43806857143 600.42971428571 214.25406857143 600.49371428571 216.17406857143 C 600.87771428571 226.35006857143 605.80571428571 231.43806857143 615.27771428571 231.43806857143 C 619.82171428571 231.43806857143 623.46971428571 230.20606857143 626.22171428571 227.74206857143 C 628.97371428571 225.27806857143 630.34971428571 221.61406857143 630.34971428571 216.75006857143 L 630.34971428571 213.77406857143 L 618.63771428571 213.77406857143 C 617.93371428571 213.77406857143 617.37371428571 213.55006857143 616.95771428571 213.10206857143 C 616.54171428571 212.65406857143 616.33371428571 212.07806857143 616.33371428571 211.37406857143 L 616.33371428571 206.28606857143 C 616.33371428571 205.58206857143 616.54171428571 205.00606857143 616.95771428571 204.55806857143 C 617.37371428571 204.11006857143 617.93371428571 203.88606857143 618.63771428571 203.88606857143 L 641.58171428571 203.88606857143 C 642.28571428571 203.88606857143 642.84571428571 204.11006857143 643.26171428571 204.55806857143 C 643.67771428571 205.00606857143 643.88571428571 205.58206857143 643.88571428571 206.28606857143 L 643.88571428571 216.36606857143 C 643.88571428571 221.67806857143 642.71771428571 226.30206857143 640.38171428571 230.23806857143 C 638.04571428571 234.17406857143 634.70171428571 237.19806857143 630.34971428571 239.31006857143 C 625.99771428571 241.42206857143 620.90971428571 242.47806857143 615.08571428571 242.47806857143 C 606.31771428571 242.47806857143 599.48571428571 240.20606857143 594.58971428571 235.66206857143 Z M 649.21371428571 240.94206857143 C 648.79771428571 240.55806857143 648.58971428571 240.07806857143 648.58971428571 239.50206857143 L 648.78171428571 238.63806857143 L 671.91771428571 176.71806857143 C 672.36571428571 175.11806857143 673.48571428571 174.31806857143 675.27771428571 174.31806857143 L 685.74171428571 174.31806857143 C 687.40571428571 174.31806857143 688.52571428571 175.11806857143 689.10171428571 176.71806857143 L 712.23771428571 238.63806857143 C 712.30171428571 238.83006857143 712.33371428571 239.11806857143 712.33371428571 239.50206857143 C 712.33371428571 240.07806857143 712.14171428571 240.55806857143 711.75771428571 240.94206857143 C 711.37371428571 241.32606857143 710.92571428571 241.51806857143 710.41371428571 241.51806857143 L 702.06171428571 241.51806857143 C 701.22971428571 241.51806857143 700.58971428571 241.32606857143 700.14171428571 240.94206857143 C 699.69371428571 240.55806857143 699.40571428571 240.14206857143 699.27771428571 239.69406857143 L 694.76571428571 227.98206857143 L 666.25371428571 227.98206857143 L 661.74171428571 239.69406857143 C 661.22971428571 240.91006857143 660.30171428571 241.51806857143 658.95771428571 241.51806857143 L 650.60571428571 241.51806857143 C 650.09371428571 241.51806857143 649.62971428571 241.32606857143 649.21371428571 240.94206857143 Z M 691.40571428571 216.94206857143 L 680.46171428571 187.27806857143 L 669.61371428571 216.94206857143 L 691.40571428571 216.94206857143 Z M 729.70971428571 240.84606857143 C 729.26171428571 240.39806857143 729.03771428571 239.85406857143 729.03771428571 239.21406857143 L 729.03771428571 186.12606857143 L 711.27771428571 186.12606857143 C 710.63771428571 186.12606857143 710.09371428571 185.90206857143 709.64571428571 185.45406857143 C 709.19771428571 185.00606857143 708.97371428571 184.46206857143 708.97371428571 183.82206857143 L 708.97371428571 176.71806857143 C 708.97371428571 176.01406857143 709.18171428571 175.43806857143 709.59771428571 174.99006857143 C 710.01371428571 174.54206857143 710.57371428571 174.31806857143 711.27771428571 174.31806857143 L 760.23771428571 174.31806857143 C 760.94171428571 174.31806857143 761.51771428571 174.54206857143 761.96571428571 174.99006857143 C 762.41371428571 175.43806857143 762.63771428571 176.01406857143 762.63771428571 176.71806857143 L 762.63771428571 183.82206857143 C 762.63771428571 184.46206857143 762.41371428571 185.00606857143 761.96571428571 185.45406857143 C 761.51771428571 185.90206857143 760.94171428571 186.12606857143 760.23771428571 186.12606857143 L 742.57371428571 186.12606857143 L 742.57371428571 239.21406857143 C 742.57371428571 239.85406857143 742.34971428571 240.39806857143 741.90171428571 240.84606857143 C 741.45371428571 241.29406857143 740.87771428571 241.51806857143 740.17371428571 241.51806857143 L 731.34171428571 241.51806857143 C 730.70171428571 241.51806857143 730.15771428571 241.29406857143 729.70971428571 240.84606857143 Z M 773.00571428571 240.84606857143 C 772.55771428571 240.39806857143 772.33371428571 239.85406857143 772.33371428571 239.21406857143 L 772.33371428571 176.71806857143 C 772.33371428571 176.01406857143 772.54171428571 175.43806857143 772.95771428571 174.99006857143 C 773.37371428571 174.54206857143 773.93371428571 174.31806857143 774.63771428571 174.31806857143 L 816.87771428571 174.31806857143 C 817.58171428571 174.31806857143 818.15771428571 174.54206857143 818.60571428571 174.99006857143 C 819.05371428571 175.43806857143 819.27771428571 176.01406857143 819.27771428571 176.71806857143 L 819.27771428571 183.05406857143 C 819.27771428571 183.75806857143 819.05371428571 184.31806857143 818.60571428571 184.73406857143 C 818.15771428571 185.15006857143 817.58171428571 185.35806857143 816.87771428571 185.35806857143 L 785.29371428571 185.35806857143 L 785.29371428571 202.35006857143 L 814.76571428571 202.35006857143 C 815.46971428571 202.35006857143 816.04571428571 202.55806857143 816.49371428571 202.97406857143 C 816.94171428571 203.39006857143 817.16571428571 203.95006857143 817.16571428571 204.65406857143 L 817.16571428571 210.60606857143 C 817.16571428571 211.31006857143 816.94171428571 211.87006857143 816.49371428571 212.28606857143 C 816.04571428571 212.70206857143 815.46971428571 212.91006857143 814.76571428571 212.91006857143 L 785.29371428571 212.91006857143 L 785.29371428571 230.47806857143 L 817.64571428571 230.47806857143 C 818.34971428571 230.47806857143 818.92571428571 230.70206857143 819.37371428571 231.15006857143 C 819.82171428571 231.59806857143 820.04571428571 232.17406857143 820.04571428571 232.87806857143 L 820.04571428571 239.21406857143 C 820.04571428571 239.91806857143 819.82171428571 240.47806857143 819.37371428571 240.89406857143 C 818.92571428571 241.31006857143 818.34971428571 241.51806857143 817.64571428571 241.51806857143 L 774.63771428571 241.51806857143 C 773.99771428571 241.51806857143 773.45371428571 241.29406857143 773.00571428571 240.84606857143 Z M 840.68571428571 239.88606857143 C 836.58971428571 238.15806857143 833.48571428571 235.88606857143 831.37371428571 233.07006857143 C 829.26171428571 230.25406857143 828.14171428571 227.21406857143 828.01371428571 223.95006857143 C 828.01371428571 223.37406857143 828.20571428571 222.89406857143 828.58971428571 222.51006857143 C 828.97371428571 222.12606857143 829.45371428571 221.93406857143 830.02971428571 221.93406857143 L 838.57371428571 221.93406857143 C 839.34171428571 221.93406857143 839.93371428571 222.07806857143 840.34971428571 222.36606857143 C 840.76571428571 222.65406857143 841.16571428571 223.11806857143 841.54971428571 223.75806857143 C 842.18971428571 225.93406857143 843.66171428571 227.75806857143 845.96571428571 229.23006857143 C 848.26971428571 230.70206857143 851.40571428571 231.43806857143 855.37371428571 231.43806857143 C 859.91771428571 231.43806857143 863.34171428571 230.68606857143 865.64571428571 229.18206857143 C 867.94971428571 227.67806857143 869.10171428571 225.58206857143 869.10171428571 222.89406857143 C 869.10171428571 221.10206857143 868.50971428571 219.63006857143 867.32571428571 218.47806857143 C 866.14171428571 217.32606857143 864.38171428571 216.33406857143 862.04571428571 215.50206857143 C 859.70971428571 214.67006857143 856.23771428571 213.64606857143 851.62971428571 212.43006857143 C 844.07771428571 210.63806857143 838.55771428571 208.25406857143 835.06971428571 205.27806857143 C 831.58171428571 202.30206857143 829.83771428571 198.06206857143 829.83771428571 192.55806857143 C 829.83771428571 188.84606857143 830.84571428571 185.55006857143 832.86171428571 182.67006857143 C 834.87771428571 179.79006857143 837.78971428571 177.51806857143 841.59771428571 175.85406857143 C 845.40571428571 174.19006857143 849.83771428571 173.35806857143 854.89371428571 173.35806857143 C 860.14171428571 173.35806857143 864.68571428571 174.28606857143 868.52571428571 176.14206857143 C 872.36571428571 177.99806857143 875.29371428571 180.31806857143 877.30971428571 183.10206857143 C 879.32571428571 185.88606857143 880.39771428571 188.65406857143 880.52571428571 191.40606857143 C 880.52571428571 191.98206857143 880.33371428571 192.46206857143 879.94971428571 192.84606857143 C 879.56571428571 193.23006857143 879.08571428571 193.42206857143 878.50971428571 193.42206857143 L 869.58171428571 193.42206857143 C 868.23771428571 193.42206857143 867.30971428571 192.81406857143 866.79771428571 191.59806857143 C 866.41371428571 189.55006857143 865.13371428571 187.83806857143 862.95771428571 186.46206857143 C 860.78171428571 185.08606857143 858.09371428571 184.39806857143 854.89371428571 184.39806857143 C 851.30971428571 184.39806857143 848.49371428571 185.07006857143 846.44571428571 186.41406857143 C 844.39771428571 187.75806857143 843.37371428571 189.71006857143 843.37371428571 192.27006857143 C 843.37371428571 194.06206857143 843.88571428571 195.53406857143 844.90971428571 196.68606857143 C 845.93371428571 197.83806857143 847.54971428571 198.86206857143 849.75771428571 199.75806857143 C 851.96571428571 200.65406857143 855.14971428571 201.64606857143 859.30971428571 202.73406857143 C 864.94171428571 204.01406857143 869.43771428571 205.45406857143 872.79771428571 207.05406857143 C 876.15771428571 208.65406857143 878.63771428571 210.67006857143 880.23771428571 213.10206857143 C 881.83771428571 215.53406857143 882.63771428571 218.63806857143 882.63771428571 222.41406857143 C 882.63771428571 226.51006857143 881.50171428571 230.07806857143 879.22971428571 233.11806857143 C 876.95771428571 236.15806857143 873.75771428571 238.47806857143 869.62971428571 240.07806857143 C 865.50171428571 241.67806857143 860.74971428571 242.47806857143 855.37371428571 242.47806857143 C 849.67771428571 242.47806857143 844.78171428571 241.61406857143 840.68571428571 239.88606857143 Z"/></svg>